<?xml version="1.0" encoding="UTF-8" standalone="no"?>
<!DOCTYPE svg PUBLIC "-//W3C//DTD SVG 1.1//EN" "http://www.w3.org/Graphics/SVG/1.1/DTD/svg11.dtd">
<svg width="100%" height="100%" viewBox="0 0 288 620" version="1.1" xmlns="http://www.w3.org/2000/svg" xmlns:xlink="http://www.w3.org/1999/xlink" xml:space="preserve" xmlns:serif="http://www.serif.com/" style="fill-rule:evenodd;clip-rule:evenodd;stroke-linejoin:round;stroke-miterlimit:2;">
    <g transform="matrix(1,0,0,1,-58.585,-34.6951)">
        <g transform="matrix(1,0,0,1,298.21,43.0401)">
            <path d="M0,602.497C-34.837,606.974 -185.933,606.929 -192.176,606.925C-193.322,606.69 -201.242,604.855 -209.547,597.482C-221.419,586.943 -228.721,569.869 -230.664,548.106C-230.953,544.872 -231.229,541.804 -231.495,538.903L-220.437,539.956C-235.22,493.347 -222.164,364.091 -222.164,364.091C-222.164,364.091 -227.511,344.045 -231.701,338.495C-231.478,336.231 -231.247,334.37 -231.008,333.023C-228.194,317.18 -205.657,285.444 -205.453,285.157C-204.955,284.487 -193.215,268.543 -188.155,248.94C-184.481,234.708 -167.26,190.639 -156.97,164.309C-153.316,154.958 -150.677,148.203 -149.853,145.873C-147.23,138.456 -141.667,134.027 -140.806,133.374L-129.673,127.97C-125.013,130.522 -118.561,131.832 -113.492,132.362C-104.32,133.32 -85.733,135.223 -79.317,127.546C-74.485,121.764 -73.423,111.925 -71.129,104.867C-68.681,97.33 -65.869,89.715 -61.663,83.03C-59.335,79.33 -57.048,76.292 -54.512,73.789L-50.396,80.075L-53.49,81.271L-53.572,88.205L-50.399,91.615L-55,131.504L-53.786,132.142C-50.706,133.758 -46.344,137.005 -46.082,138.941C-45.989,141.145 -46.165,147.181 -48.047,149.734L-48.411,150.228L-48.436,150.841C-48.466,151.626 -48.63,158.378 -45.347,162.449C-44.75,166.456 -44.451,175.698 -49.269,178.046C-57.196,181.912 -69.65,200.755 -70.177,201.556L-70.508,202.639L-92.803,200.267C-92.803,200.267 -109.61,237.707 -53.562,280.295C-14.958,309.627 -3.742,319.503 -0.499,322.81L-0.525,322.807L-8.235,330.672L21.695,363.43L31.198,358.97L31.196,358.96L31.198,358.96C30.805,343.96 -17.84,304.969 -58.058,273.689C-80.407,256.306 -86.729,235.834 -87.937,221.068L-71.665,222.617L-71.742,223.953L-71.745,224.101C-71.73,225.017 -71.267,246.644 -60.475,256.466C-50.267,265.756 -11.683,296.333 -10.095,297.59C-9.652,297.964 34.166,335.14 39.105,351.7C40.034,354.371 42.453,361.888 42.497,364.569C42.552,368.054 43.252,379.792 43.324,381.001L39.462,551.338C39.198,553.503 33.278,598.22 0,602.497M-133.862,118.638C-133.897,113.875 -134.493,105.047 -138.123,99.505C-143.652,91.064 -167.291,83.559 -173.146,82.299C-178.376,81.173 -180.318,76.023 -180.823,74.323C-178.411,68.127 -157.498,15.556 -138.796,5.051C-121.777,-4.508 -111.855,-4.433 -109.219,-4.182C-108.922,-4.154 -108.75,-4.125 -108.722,-4.12L-108.547,-4.085L-0.024,-1.5L0.138,-3.203L12.358,0.218C16.586,8.392 16.225,16.083 14.712,26.244C13.262,35.988 9.356,47.081 9.326,56.965L7.223,54.21L1.449,54.4L1.175,56.01C1.162,56.089 1.114,56.384 1.059,56.848C-2.602,56.444 -6.861,57.103 -10.303,57.456C-18.452,58.292 -26.456,60.455 -34.375,62.563C-39.11,63.824 -43.26,65.622 -47.379,67.73C-50.604,68.941 -53.769,70.342 -56.447,72.125C-62.101,75.887 -61.755,77.166 -68.657,77.746C-75.394,78.31 -81.515,80.843 -88.519,81.061C-95.978,81.293 -103.582,79.98 -111.134,79.618C-119.155,79.233 -153.157,71.604 -157.629,79.724C-139.885,80.983 -115.099,81.708 -108.752,101.643C-106.706,108.069 -106.328,121.935 -113.86,124.403C-118.851,126.039 -129.378,122.467 -133.862,118.638M38.561,48.252C38.451,48.654 38.345,49.055 38.228,49.459L37.693,49.62C38.004,49.18 38.295,48.725 38.561,48.252M-239.516,490.463L-237.206,521.121C-236.563,527.534 -235.729,536.35 -234.648,548.463C-233.221,564.45 -228.131,586.483 -211.996,600.656C-202.217,609.246 -193.075,610.835 -192.691,610.897L-192.53,610.925L-192.285,610.933C-190.717,610.935 -34.973,611.061 0.676,606.479C37.741,601.716 43.732,552.226 43.779,551.726L43.788,551.64L47.491,381.025L47.321,380.845C47.314,380.717 46.552,368.014 46.495,364.506C46.435,360.699 43.246,351.431 42.911,350.473C37.663,332.866 -5.671,296.092 -7.562,294.495C-7.962,294.178 -47.675,262.706 -57.783,253.507C-67.017,245.103 -67.708,225.419 -67.744,224.105L-66.54,203.309C-62.868,197.796 -53.127,184.378 -47.515,181.642C-38.732,177.359 -41.377,161.878 -41.494,161.221L-41.597,160.641L-41.999,160.209C-43.997,158.061 -44.433,153.642 -44.446,151.542C-41.772,147.224 -42.047,139.581 -42.089,138.688L-42.097,138.578C-42.514,134.526 -48.013,130.848 -50.716,129.272L-46.214,90.241L-49.553,86.652L-49.522,84.026L-44.338,82.022L-47.704,76.884L-39.526,77.332L-39.662,74.449L-32.774,74.573C-30.848,78.172 -25.632,80.636 -24.484,81.143L-24.254,81.246L-24.006,81.287C-19.819,81.989 -16.553,85.415 -15.905,86.137C-9.325,98.439 10.462,119.913 11.341,120.863L30.589,140.638L30.786,140.815C32.1,141.848 33.404,142.432 34.664,142.552C38.386,142.905 40.372,139.385 40.958,137.249L41.159,136.519L12.547,78.105L12.159,77.816C4.734,72.282 4.664,62.195 4.947,58.287L5.297,58.276L6.607,59.988C7.348,61.076 8.48,61.742 9.806,61.869C11.372,62.017 12.812,61.398 13.398,61.101L41.439,52.67L41.751,51.645C49.392,26.525 42.92,6.312 42.641,5.464L42.308,4.451L17.252,-2.565C16.71,-2.756 16.19,-2.95 15.72,-3.149C15.651,-3.108 15.608,-3.072 15.567,-3.036L-3.391,-8.345L-3.653,-5.588L-108.125,-8.075C-108.277,-8.1 -108.516,-8.133 -108.84,-8.164C-111.769,-8.443 -122.724,-8.564 -140.755,1.564C-161.788,13.377 -183.862,71.046 -184.792,73.496L-185.001,74.048L-184.877,74.625C-184.792,75.021 -182.695,84.335 -173.987,86.209C-166.428,87.836 -145.673,95.278 -141.469,101.697C-137.148,108.293 -137.914,121.545 -137.922,121.678L-137.981,122.636L-134.455,125.845L-142.718,129.856L-142.997,130.02C-143.295,130.231 -150.351,135.282 -153.624,144.54C-154.426,146.808 -157.056,153.538 -160.696,162.852C-171.018,189.267 -188.294,233.476 -192.028,247.94C-196.887,266.764 -208.546,282.613 -208.686,282.802C-209.636,284.133 -231.975,315.594 -234.946,332.324C-235.388,334.813 -235.802,338.908 -236.187,344.067C-236.32,345.37 -236.426,346.867 -236.5,348.6C-238.459,379.033 -239.568,435.679 -239.625,438.665L-239.555,489.008" style="fill-rule:nonzero;"/>
        </g>
        <g transform="matrix(1,0,0,1,68.6499,367.828)">
            <path d="M0,109.563L86.678,109.563C86.678,109.563 85.878,85.129 106.511,74.321L62.788,0C62.788,0 -0.397,29.05 0,109.563" style="fill-rule:nonzero;"/>
        </g>
        <g transform="matrix(-1,0,0,1,214.03,367.828)">
            <path d="M-106.12,109.563L-19.441,109.563C-19.441,109.563 -20.24,85.129 0.396,74.321L-43.33,0C-43.33,0 -106.516,29.05 -106.12,109.563" style="fill-rule:nonzero;"/>
        </g>
        <g transform="matrix(1,0,0,1,197.697,622.591)">
            <path d="M0,-172.471C0,-172.471 -2.762,-172.64 -3.559,-172.64C-4.353,-172.64 -7.539,-172.483 -7.539,-172.483C-13.928,-171.739 -26.614,-167.878 -31.02,-149.214C-31.02,-149.214 -34.896,-136.568 -26.796,-125.123C-26.796,-125.123 -29.965,-121.487 -26.796,-115.853C-26.796,-115.853 -24.506,-111.889 -21.691,-112.068L-19.225,-106.116L-27.137,-106.116L-65.483,-40.127C-65.483,-40.127 -12.952,0.169 59.018,-39.758L20.669,-106.116L11.79,-106.116L14.256,-112.068C17.072,-111.889 19.362,-115.481 19.362,-115.481C22.533,-121.116 19.362,-124.936 19.362,-124.936C27.464,-136.382 23.588,-149.12 23.588,-149.12C19.178,-167.798 6.477,-171.696 0.094,-172.437" style="fill-rule:nonzero;"/>
        </g>
        <g transform="matrix(1,0,0,1,186.381,490.094)">
            <path d="M0,11.107C2.985,10.284 2.688,7.818 2.688,7.818C1.565,7.499 0.964,6.856 -0.079,5.733C-1.121,4.609 -2.285,2.002 -2.285,2.002L-3.569,3.004C-7.101,-1.125 -10.146,-1.727 -10.146,-1.727C-10.146,-1.727 -14.629,3.626 -9.281,8.957L-9.786,9.784C-9.786,9.784 -6.256,12.834 0,11.107" style="fill:white;fill-rule:nonzero;"/>
        </g>
        <g transform="matrix(1,0,0,1,193.162,510.595)">
            <path d="M0,-12.04C0,-12.04 -0.028,-12.007 -0.076,-11.939C-0.916,-10.851 -8.181,-1.162 -2.126,-0.366C-2.126,-0.366 0.703,0 0,-12.04" style="fill:white;fill-rule:nonzero;"/>
        </g>
        <g transform="matrix(1,0,0,1,198.379,491.683)">
            <path d="M0,6.345C0,6.345 0.83,9.661 6.289,9.204C11.745,8.746 13.232,5.026 13.232,5.026C13.232,5.026 14.824,2.316 14.116,-0.631L12.288,-3.316L7.148,0.253L5.69,0.606C5.69,0.606 4.211,4.837 0,6.345" style="fill:white;fill-rule:nonzero;"/>
        </g>
        <g transform="matrix(1,0,0,1,194.417,510.595)">
            <path d="M0,-12.04C0,-12.04 0.027,-12.007 0.076,-11.939C0.915,-10.851 8.18,-1.162 2.125,-0.366C2.125,-0.366 -0.705,0 0,-12.04" style="fill:white;fill-rule:nonzero;"/>
        </g>
    </g>
</svg>
